# xmcd
#
# Track frame offsets: 
#        150
#        21114
#        40752
#        57064
#        71756
#        82817
#        100451
#        116959
#        130765
#        142624
#        161655
#        180030
#        195169
#        212768
#        225833
#
# Disc length: 3271 seconds
#
# Revision: 0
# Processed by: cddbd v1.5.2PL0 Copyright (c) Steve Scherf et al.
# Submitted via: ExactAudioCopy v0.99pb5
#
DISCID=b30cc50f
DTITLE=The Riders - Rock A Bye Baby
DYEAR=1999
DGENRE=Blues
TTITLE0=Big Bad Mama
TTITLE1=Daybreak
TTITLE2=Hold Tight
TTITLE3=Coming Home
TTITLE4=Riding High
TTITLE5=Rock A Bye Baby
TTITLE6=Fly
TTITLE7=Green Light
TTITLE8=Happy
TTITLE9=All I Need
TTITLE10=Crossroads
TTITLE11=One Track Mind
TTITLE12=Need Your Lovin'
TTITLE13=Forever
TTITLE14=Walkin' My Own Way
EXTD=
EXTT0=
EXTT1=
EXTT2=
EXTT3=
EXTT4=
EXTT5=
EXTT6=
EXTT7=
EXTT8=
EXTT9=
EXTT10=
EXTT11=
EXTT12=
EXTT13=
EXTT14=
PLAYORDER=
